
Genre:Action | Crime | Sci-Fi
Language:English
 
http://www.imdb.com/title/tt1133985/

Source:Green Lantern DVD TS/IMAGINE Thanks!

Format : MPEG-4
Format profile : Base Media
Codec ID : isom
File size : 944 MiB
Duration : 1h 40mn
Overall bit rate : 1 318 Kbps

Video
ID : 1
Format : AVC
Format/Info : Advanced Video Codec
Format profile : High@L4.1
Format settings, CABAC : Yes
Format settings, ReFrames : 3 frames
Codec ID : avc1
Codec ID/Info : Advanced Video Coding
Duration : 1h 40mn
Bit rate mode : Variable
Bit rate : 1 094 Kbps
Maximum bit rate : 3 554 Kbps
Width : 720 pixels
Height : 320 pixels
Display aspect ratio : 2.25:1
Frame rate mode : Constant
Frame rate : 25.000 fps
Color space : YUV
Chroma subsampling : 4:2:0
Bit depth : 8 bits
Scan type : Progressive
Bits/(Pixel*Frame) : 0.190
Stream size : 781 MiB (83%)
Writing library : x264

Audio
ID : 2
Format : AAC
Format/Info : Advanced Audio Codec
Format version : Version 4
Format profile : LC
Format settings, SBR : No
Codec ID : 40
Duration : 1h 40mn
Bit rate mode : Variable
Bit rate : 224 Kbps
Maximum bit rate : 261 Kbps
Channel(s) : 2 channels
Channel positions : Front: L R
Sampling rate : 44.1 KHz
Stream size : 160 MiB (17%)


Plot:
A test pilot is granted a mystical green ring that bestows him with otherworldly powers, as well as membership into an intergalactic squadron tasked with keeping peace within the universe.
 
http://leetleech.org/images/42556610863714022484.png
 
http://leetleech.org/images/78513779424773968092.png
 
http://leetleech.org/images/93105160487460220308.png
 
http://leetleech.org/images/24562402414499453790.png
 
http://leetleech.org/images/51833900741297543193.png
 
http://leetleech.org/images/68556368758581965358.png
